<?xml version="1.0" encoding="utf-8"?>
<!-- Generator: Adobe Illustrator 23.0.0, SVG Export Plug-In . SVG Version: 6.00 Build 0)  -->
<svg version="1.1" id="Capa_1" xmlns="http://www.w3.org/2000/svg" xmlns:xlink="http://www.w3.org/1999/xlink" x="0px" y="0px"
	 viewBox="0 0 512 512" style="enable-background:new 0 0 512 512;" xml:space="preserve">
<style type="text/css">
	.st0{fill:#FFFFFF;}
</style>
<g>
	<g>
		<path class="st0" d="M497,0H15C6.7,0,0,6.7,0,15v482c0,8.3,6.7,15,15,15h482c8.3,0,15-6.7,15-15V15C512,6.7,505.3,0,497,0z
			 M482,482H30V30h452V482z"/>
	</g>
</g>
<g>
	<g>
		<path class="st0" d="M250.5,100.8c-2.8-2.8-6.7-4.4-10.6-4.4s-7.8,1.6-10.6,4.4s-4.4,6.7-4.4,10.6s1.6,7.8,4.4,10.6
			c2.8,2.8,6.7,4.4,10.6,4.4c3.9,0,7.8-1.6,10.6-4.4s4.4-6.7,4.4-10.6C254.9,107.4,253.3,103.6,250.5,100.8z"/>
	</g>
</g>
<g>
	<g>
		<path class="st0" d="M330.9,100.8c-2.8-2.8-6.7-4.4-10.6-4.4c-4,0-7.8,1.6-10.6,4.4c-2.8,2.8-4.4,6.7-4.4,10.6s1.6,7.8,4.4,10.6
			c2.8,2.8,6.7,4.4,10.6,4.4s7.8-1.6,10.6-4.4c2.8-2.8,4.4-6.7,4.4-10.6C335.3,107.4,333.7,103.6,330.9,100.8z"/>
	</g>
</g>
<g>
	<g>
		<path class="st0" d="M411.2,100.8c-2.8-2.8-6.7-4.4-10.6-4.4c-4,0-7.8,1.6-10.6,4.4c-2.8,2.8-4.4,6.7-4.4,10.6s1.6,7.8,4.4,10.6
			c2.8,2.8,6.7,4.4,10.6,4.4c4,0,7.8-1.6,10.6-4.4c2.8-2.8,4.4-6.7,4.4-10.6C415.6,107.4,414,103.6,411.2,100.8z"/>
	</g>
</g>
<g>
	<g>
		<path class="st0" d="M400.6,385.6H111.4c-8.3,0-15,6.7-15,15s6.7,15,15,15h289.2c8.3,0,15-6.7,15-15S408.9,385.6,400.6,385.6z"/>
	</g>
</g>
<g>
	<g>
		<path class="st0" d="M400.6,289.2H111.4c-8.3,0-15,6.7-15,15s6.7,15,15,15h289.2c8.3,0,15-6.7,15-15S408.9,289.2,400.6,289.2z"/>
	</g>
</g>
<g>
	<g>
		<path class="st0" d="M352.4,192.8H159.6c-8.3,0-15,6.7-15,15s6.7,15,15,15h192.8c8.3,0,15-6.7,15-15S360.7,192.8,352.4,192.8z"/>
	</g>
</g>
</svg>
