<?xml version="1.0" encoding="utf-8"?>
<!-- Generator: Adobe Illustrator 23.0.0, SVG Export Plug-In . SVG Version: 6.00 Build 0)  -->
<svg version="1.1" id="Layer_1" xmlns="http://www.w3.org/2000/svg" xmlns:xlink="http://www.w3.org/1999/xlink" x="0px" y="0px"
	 viewBox="0 0 512 512" style="enable-background:new 0 0 512 512;" xml:space="preserve">
<style type="text/css">
	.st0{fill:#FFFFFF;}
</style>
<g id="XMLID_1167_">
	<g id="XMLID_1015_">
		<path id="XMLID_1084_" class="st0" d="M107,114.9c7.3,0,13.2,4.9,13.2,11c0,5.5,4.5,10,10,10s10-4.5,10-10
			c0-13.8-9.8-25.6-23.2-29.6V95c0-5.5-4.5-10-10-10s-10,4.5-10,10v1.4c-13.4,4-23.2,15.7-23.2,29.6c0,17.1,14.9,31,33.2,31
			c7.3,0,13.2,4.9,13.2,11s-5.9,11-13.2,11s-13.2-4.9-13.2-11c0-5.5-4.5-10-10-10s-10,4.5-10,10c0,13.8,9.8,25.6,23.2,29.6v1.4
			c0,5.5,4.5,10,10,10s10-4.5,10-10v-1.4c13.4-4,23.2-15.7,23.2-29.6c0-17.1-14.9-31-33.2-31c-7.3,0-13.2-4.9-13.2-11
			S99.7,114.9,107,114.9z"/>
		<path id="XMLID_1192_" class="st0" d="M291,292.7c-5.5,0-10,4.5-10,10V448c0,5.5,4.5,10,10,10h48c5.5,0,10-4.5,10-10V302.7
			c0-5.5-4.5-10-10-10H291z M329,438h-28V312.7h28V438z"/>
		<path id="XMLID_1195_" class="st0" d="M435,269h-48c-5.5,0-10,4.5-10,10v169c0,5.5,4.5,10,10,10h48c5.5,0,10-4.5,10-10V279
			C445,273.5,440.5,269,435,269z M425,438h-28V289h28V438z"/>
		<path id="XMLID_1200_" class="st0" d="M195,348c-5.5,0-10,4.5-10,10v90c0,5.5,4.5,10,10,10h48c5.5,0,10-4.5,10-10v-90
			c0-5.5-4.5-10-10-10H195z M233,438h-28v-70h28V438z"/>
		<path id="XMLID_1202_" class="st0" d="M407.6,141.4c-44.3,72.7-119,121.6-202.7,133.7l4.9-8.1c2.9-4.7,1.4-10.9-3.3-13.7
			c-4.7-2.9-10.9-1.4-13.7,3.3L177.3,282c-2.9,4.7-1.4,10.9,3.3,13.7l25.4,15.5c4.7,2.9,10.9,1.4,13.7-3.3
			c2.9-4.7,1.4-10.9-3.3-13.7l-0.9-0.6c37.2-6.4,73.3-19.6,105.6-39c42-25.2,77.8-60.7,103.5-102.9c2.9-4.7,1.4-10.9-3.3-13.7
			C416.7,135.2,410.5,136.7,407.6,141.4L407.6,141.4z"/>
		<path id="XMLID_1205_" class="st0" d="M502,0H360c-5.5,0-10,4.5-10,10s4.5,10,10,10h132v472H138V249.4c43.9-13.3,76-54.2,76-102.4
			s-32.1-89.1-76-102.4V20h132c5.5,0,10-4.5,10-10s-4.5-10-10-10H128c-5.5,0-10,4.5-10,10v30.6c-3.6-0.4-7.3-0.6-11-0.6
			C48,40,0,88,0,147s48,107,107,107c3.7,0,7.4-0.2,11-0.6V502c0,5.5,4.5,10,10,10h374c5.5,0,10-4.5,10-10V10C512,4.5,507.5,0,502,0z
			 M20,147c0-48,39-87,87-87s87,39,87,87s-39,87-87,87S20,195,20,147z"/>
		<path id="XMLID_1206_" class="st0" d="M315,20c2.6,0,5.2-1.1,7.1-2.9c1.9-1.9,2.9-4.4,2.9-7.1s-1.1-5.2-2.9-7.1
			C320.2,1.1,317.6,0,315,0s-5.2,1.1-7.1,2.9S305,7.4,305,10s1.1,5.2,2.9,7.1C309.8,18.9,312.4,20,315,20z"/>
	</g>
</g>
</svg>
