<?xml version="1.0" encoding="utf-8"?>
<!-- Generator: Adobe Illustrator 23.0.0, SVG Export Plug-In . SVG Version: 6.00 Build 0)  -->
<svg version="1.1" id="Capa_1" xmlns="http://www.w3.org/2000/svg" xmlns:xlink="http://www.w3.org/1999/xlink" x="0px" y="0px"
	 viewBox="0 0 512 512" style="enable-background:new 0 0 512 512;" xml:space="preserve">
<style type="text/css">
	.st0{fill:#272E6C;}
</style>
<g>
	<path class="st0" d="M255.3,323.7c4.1,0,7.5-3.4,7.5-7.5v-6.8c18.3-2.9,29.4-16,31.2-28.9c2.1-14.7-7.4-27.4-24.1-32.2
		c-11-3.2-23.2-7.1-30.3-11.7c-3.9-2.5-3.7-6.7-3.4-8.4c0.7-4.2,4.1-9.3,11.5-11.1c2.7-0.7,5.2-1,7.5-1.1c0,0,0,0,0.1,0
		c0.3,0,0.5,0,0.8,0c10.9-0.3,17.6,4.4,18.1,4.7c3.3,2.5,8,1.8,10.5-1.5s1.9-8-1.4-10.5c-0.4-0.3-8-6-20.4-7.4v-5.5
		c0-4.1-3.4-7.5-7.5-7.5s-7.5,3.4-7.5,7.5v6c-1.2,0.2-2.4,0.5-3.7,0.8c-11.9,3-20.8,12.1-22.7,23.2c-1.6,9.4,2.3,18.4,10.1,23.4
		c7,4.5,16.9,8.4,34.2,13.5c9.6,2.8,14.5,8.5,13.5,15.7c-1.1,8.2-9.7,16.5-23.9,16.6c-11.8,0.1-16.4-0.4-26.5-5.8
		c-3.6-2-8.2-0.6-10.2,3s-0.6,8.2,3,10.2c10.3,5.5,17,7.1,26.1,7.5v6.3C247.8,320.3,251.1,323.7,255.3,323.7L255.3,323.7z"/>
	<path class="st0" d="M505.8,314.1c0-4-3.2-7.3-7.2-7.5l-58.2-2.4l-44.6-5.7c-19.7-2.5-39.7-1.8-59.1,2.1c1.6-2.9,3.1-6,4.4-9.1
		c1.6-3.8-0.2-8.2-4-9.8c-3.8-1.6-8.2,0.2-9.8,4c-3.2,7.6-7.5,14.6-12.9,20.8c-1.9,0.6-3.7,1.3-5.6,2l-5.9,2.2
		c-8.4,3.1-14.7,9.4-18,16.9c-9.1,3.7-18.8,5.6-28.8,5.6c-42.5,0-77.1-34.6-77.1-77.1c0-18.6,6.7-36.5,18.9-50.5
		c1.9-0.6,3.7-1.3,5.6-1.9l5.9-2.2c8.4-3.1,14.7-9.4,18-16.9c9.1-3.7,18.8-5.6,28.8-5.6c42.5,0,77.2,34.6,77.2,77.2
		c0,1.3,0,2.6-0.1,3.7c-0.2,4.1,3,7.7,7.1,7.9c0.1,0,0.3,0,0.4,0c4,0,7.3-3.1,7.5-7.1c0.1-1.4,0.1-2.9,0.1-4.5
		c0-50.8-41.3-92.2-92.2-92.2c-9,0-17.9,1.3-26.4,3.8c-0.3-2.1-0.7-4.1-1.4-6.2c-2-5.8-5.5-10.9-10.3-14.7s-10.6-6.1-16.6-6.7
		l-29.5-2.8l11.3-8.6l69.6-0.1c0.2,0,0.3,0,0.5,0c13.3,0,25-8.4,29.6-20.5h0.7c14.9,0.2,27.8-9.9,31.2-24.1
		c9.8-4.3,17.2-13.4,18.8-24.6c0.2-1.4,0.3-2.9,0.3-4.4c0-13.8-8.8-25.9-22-30.1L240.2,2c-9.7-3.1-20.2-2.6-29.6,1.3l-69.2,29.3
		c-3.8,1.6-5.6,6-4,9.8s6,5.6,9.8,4l69.2-29.3c6.1-2.6,12.9-2.9,19.2-0.9l71.6,22.9c6.9,2.2,11.6,8.6,11.6,15.9
		c0,0.8-0.1,1.6-0.2,2.3c-1.1,8.2-8.2,14.4-16.5,14.4c-0.1,0-0.2,0-0.3,0l-64.5-1.2c-1.7,0-3.3,0.5-4.7,1.5l-85.2,65
		c-2.5,1.9-3.5,5.1-2.7,8c0.8,3,3.4,5.1,6.5,5.4l48.6,4.6c3.2,0.3,6.2,1.5,8.8,3.5c2.5,2,4.4,4.7,5.4,7.7c2.9,8.6-1.5,17.8-10,20.9
		l-5.9,2.2c-25.4,9.4-53,12.6-79.9,9.1l-38.4-4.9l-0.3-53.8l-0.3-64.5L119.8,58c3.8-1.6,5.6-6,4-9.8s-6-5.6-9.8-4L70.2,62.8
		l-56.9-2.4c-2.1-0.1-4,0.7-5.5,2.1c-1.5,1.4-2.3,3.4-2.3,5.4l0.7,129.9c0,4,3.2,7.3,7.2,7.5l58.2,2.4l44.6,5.7
		c7.7,1,15.5,1.5,23.2,1.5c12,0,24.1-1.2,35.9-3.5c-7.5,13.5-11.5,28.8-11.5,44.6c0,50.8,41.3,92.1,92.1,92.1c9,0,17.9-1.3,26.4-3.8
		c0.3,2,0.7,4.1,1.4,6.1c4,11.8,14.6,20.2,27,21.4l29.5,2.8l-11.3,8.6l-69.6,0.1c-13.5-0.2-25.5,8.3-30.1,20.5h-0.7
		c-0.2,0-0.3,0-0.5,0c-14.7,0-27.3,10.1-30.7,24.1c-9.9,4.3-17.2,13.4-18.8,24.7c-2.1,15.3,7,29.8,21.7,34.5l71.6,22.9
		c4.2,1.3,8.6,2,13,2c5.7,0,11.3-1.1,16.6-3.4l140.3-59.4l56.9,2.4c0.1,0,0.2,0,0.3,0c1.9,0,3.8-0.8,5.2-2.1
		c1.5-1.4,2.3-3.4,2.3-5.4L505.8,314.1z M252.8,113.7h-0.1l-50,0.1l7.2-5.5l55.5-0.1C262.2,111.6,257.7,113.7,252.8,113.7
		L252.8,113.7z M239.6,85.6l57.5,1c-3.1,4.1-8.1,6.6-13.5,6.5h-0.1l-53.9,0.1L239.6,85.6z M21.2,190.6L20.6,75.7l43.5,1.8l0.4,71
		l0.2,43.9L21.2,190.6z M258.9,398.3c0.1,0,0.2,0,0.3,0h0.1l50-0.1l-7.2,5.5l-55.5,0.1C249.7,400.4,254.1,398.3,258.9,398.3
		L258.9,398.3z M228.1,418.8c0.1,0,0.2,0,0.3,0s0.1,0,0.1,0l53.9-0.1l-10,7.7l-57.6-1C217.9,421.4,222.7,418.8,228.1,418.8
		L228.1,418.8z M295.6,494.8c-6.1,2.6-12.9,2.9-19.2,0.9l-71.6-22.9c-7.8-2.5-12.6-10.1-11.4-18.2c1.1-8.2,8.2-14.4,16.5-14.4
		c0.1,0,0.2,0,0.3,0l64.5,1.2c1.7,0,3.3-0.5,4.7-1.5l85.2-65c2.5-1.9,3.5-5.1,2.7-8c-0.8-3-3.4-5.1-6.5-5.4l-48.6-4.6
		c-6.5-0.6-12.1-5-14.2-11.2c-2.9-8.6,1.5-17.8,10-20.9l5.9-2.2c25.4-9.4,53-12.6,79.9-9.1l38.4,4.9l0.6,118.3L295.6,494.8z
		 M447.9,434.4l-0.6-114.9l43.5,1.8l0.6,114.9L447.9,434.4z"/>
</g>
</svg>
