<?xml version="1.0" encoding="utf-8"?>
<!-- Generator: Adobe Illustrator 23.0.0, SVG Export Plug-In . SVG Version: 6.00 Build 0)  -->
<svg version="1.1" id="Layer_1" xmlns="http://www.w3.org/2000/svg" xmlns:xlink="http://www.w3.org/1999/xlink" x="0px" y="0px"
	 viewBox="0 0 480 480" style="enable-background:new 0 0 480 480;" xml:space="preserve">
<style type="text/css">
	.st0{fill:#272E6C;}
</style>
<path class="st0" d="M224,432c-86.1-0.1-163.3-53.3-194-133.8s-8.6-171.6,55.6-229S242.8,0,319.4,39.4
	C396,78.9,440.2,161.5,430.7,247.1l15.9,1.7c0.9-8.3,1.4-16.6,1.4-24.9C448,100.3,347.7,0,224,0S0,100.3,0,224s100.3,224,224,224
	c8.3,0,16.6-0.5,24.9-1.4l-1.8-15.9C239.4,431.6,231.7,432,224,432z"/>
<path class="st0" d="M415.8,232.3c0.1-2.7,0.2-5.5,0.2-8.3c0-106-86-192-192-192S32,118,32,224s86,192,192,192
	c2.8,0,5.6-0.1,8.4-0.2l-0.7-16c-2.5,0.1-5.1,0.2-7.6,0.2c-97.2,0-176-78.8-176-176S126.8,48,224,48s176,78.8,176,176
	c0,2.6-0.1,5.1-0.2,7.7L415.8,232.3z"/>
<path class="st0" d="M216,64h16v16h-16V64z"/>
<path class="st0" d="M105.2,116.5l11.3-11.3l11.3,11.3l-11.3,11.3L105.2,116.5z"/>
<path class="st0" d="M64,216h16v16H64V216z"/>
<path class="st0" d="M105.2,331.5l11.3-11.3l11.3,11.3l-11.3,11.3L105.2,331.5z"/>
<path class="st0" d="M216,368h16v16h-16V368z"/>
<path class="st0" d="M368,216h16v16h-16V216z"/>
<path class="st0" d="M320.2,116.5l11.3-11.3l11.3,11.3l-11.3,11.3L320.2,116.5z"/>
<path class="st0" d="M254.6,224c0-2.1-0.8-4.2-2.3-5.7L232,198.1V104h-16v94.1L198.1,216H120v16h78.1l20.3,20.3
	c3.1,3.1,8.2,3.1,11.3,0l22.6-22.6C253.8,228.2,254.6,226.1,254.6,224z M224,235.3L212.7,224l11.3-11.3l11.3,11.3L224,235.3z"/>
<path class="st0" d="M352,320h16c8.8,0,16,7.2,16,16h16c0-17.7-14.3-32-32-32v-16h-16v16c-17.7,0-32,14.3-32,32s14.3,32,32,32h16
	c8.8,0,16,7.2,16,16s-7.2,16-16,16h-16c-8.8,0-16-7.2-16-16h-16c0,17.7,14.3,32,32,32v16h16v-16c17.7,0,32-14.3,32-32
	s-14.3-32-32-32h-16c-8.8,0-16-7.2-16-16S343.2,320,352,320z"/>
<path class="st0" d="M416,352h16v16h-16V352z"/>
<path class="st0" d="M288,352h16v16h-16V352z"/>
<path class="st0" d="M360,240c-66.3,0-120,53.7-120,120s53.7,120,120,120s120-53.7,120-120C479.9,293.8,426.2,240.1,360,240z
	 M360,464c-57.4,0-104-46.6-104-104s46.6-104,104-104s104,46.6,104,104C463.9,417.4,417.4,463.9,360,464z"/>
</svg>
