<?xml version="1.0" encoding="utf-8"?>
<!-- Generator: Adobe Illustrator 23.0.0, SVG Export Plug-In . SVG Version: 6.00 Build 0)  -->
<svg version="1.1" id="Layer_1" xmlns="http://www.w3.org/2000/svg" xmlns:xlink="http://www.w3.org/1999/xlink" x="0px" y="0px"
	 viewBox="0 0 512 512" style="enable-background:new 0 0 512 512;" xml:space="preserve">
<style type="text/css">
	.st0{fill:#509FD7;}
	.st1{fill:#FEED32;}
	.st2{fill:#116B30;}
	.st3{fill:#258E16;}
	.st4{fill:#56A319;}
	.st5{fill:#E6E7E8;}
</style>
<path class="st0" d="M299.3,36.8c-17.2-7.3-36.3-11.2-55.9-11.2c-19.5,0-39.6,3.9-58.5,11.8c-18.9,8-36.6,20-51.6,35.2l-18.3-14.3
	l8.7,73l72.9-8.8l-19.1-15c6.8-12.4,16.2-23.7,28-33.1c11.7-9.3,25.8-16.5,41.1-20.7s32.1-5.4,48.8-3.2c16.7,2.3,33.4,8,48.7,16.9
	C331.8,54.7,316.5,44,299.3,36.8z"/>
<path class="st1" d="M212.7,475.2c17.2,7.3,36.3,11.2,55.9,11.2c19.5,0,39.6-3.9,58.5-11.8c18.9-8,36.6-20,51.6-35.2l18.3,14.3
	l-8.7-73l-72.9,8.8l19.1,15c-6.8,12.4-16.2,23.7-28,33.1c-11.7,9.3-25.8,16.5-41.1,20.7c-15.4,4.2-32.1,5.4-48.8,3.2
	c-16.7-2.3-33.4-8-48.7-16.9C180.2,457.3,195.5,468,212.7,475.2z"/>
<path class="st2" d="M398.7,122.3L70.4,194.5c-12.1,2.7-19.8,14.7-17.1,26.8l33.3,151.3c2.7,12.1,14.7,19.8,26.8,17.1l328.3-72.2
	c12.1-2.7,19.8-14.7,17.1-26.8l-33.3-151.3C422.8,127.3,410.8,119.6,398.7,122.3z"/>
<path class="st3" d="M424.1,156H87.9c-12.4,0-22.5,10.1-22.5,22.5v155c0,12.4,10.1,22.5,22.5,22.5h336.1c12.4,0,22.5-10.1,22.5-22.5
	v-155C446.6,166.1,436.5,156,424.1,156z"/>
<path class="st4" d="M424.1,289.5v-67c-24.3,0-44-19.7-44-44H131.9c0,24.3-19.7,44-44,44v67c24.3,0,44,19.7,44,44h248.1
	C380.1,309.2,399.8,289.5,424.1,289.5L424.1,289.5z"/>
<ellipse class="st2" cx="256" cy="256" rx="51.4" ry="77.5"/>
<path class="st5" d="M252.1,305.5V298c-7.6-0.4-13.3-2.7-17.1-6.8c-3.8-4.1-5.7-10-5.7-17.8v-2.2h14.9c0,0.3,0,0.7-0.1,1.3
	c0,0.6-0.1,1-0.1,1.3c0,3.9,0.7,6.9,2.1,9c1.4,2.1,3.6,3.4,6.5,3.9v-25c-8.1-4-13.8-8-17.2-12c-3.4-4.1-5.2-8.8-5.2-14.3
	c0-6.4,1.9-11.4,5.8-15.2c3.9-3.8,9.2-5.8,16-6.1v-7.6h6.9v7.7c7,0.1,12.4,1.8,16.1,5.3c3.7,3.5,5.5,8.5,5.5,15v1.6h-14.5v-1.2
	c0-3.1-0.7-5.6-2-7.3c-1.3-1.8-3.2-2.7-5.6-2.8v22.5c9.3,4.3,15.7,8.5,19.1,12.4c3.4,3.9,5.1,8.8,5.1,14.7c0,7.2-2,12.9-6.1,16.9
	c-4.1,4-9.9,6.3-17.6,6.7v7.5H252.1z M252.6,244.3l-0.1-19.6c-2.4,0.2-4.2,1.1-5.5,2.6c-1.3,1.6-1.9,3.7-1.9,6.4
	c0,2.1,0.6,4,1.8,5.7C248.2,241.1,250.1,242.7,252.6,244.3z M258.5,286.7c2.7-0.4,4.8-1.5,6.3-3.2c1.4-1.7,2.1-4,2.1-6.8
	c0-2.8-0.6-5.1-1.8-6.9c-1.2-1.8-3.4-3.6-6.6-5.4V286.7z"/>
<g>
	<circle class="st2" cx="163.6" cy="256" r="13.7"/>
	<circle class="st2" cx="348.4" cy="256" r="13.7"/>
</g>
</svg>
