<svg id="Layer_2" data-name="Layer 2" xmlns="http://www.w3.org/2000/svg" viewBox="0 0 436.14 178"><defs><style>.cls-1,.cls-2,.cls-3{fill:#231f20;}.cls-1,.cls-3{stroke:#231f20;stroke-miterlimit:10;}.cls-3{font-size:11.44px;stroke-width:0.25px;font-family:NeologyDecoW03-Light;font-weight:300;letter-spacing:-0.02em;}.cls-4{letter-spacing:-0.03em;}.cls-5{fill:#489443;}.cls-6{fill:#2c3492;}</style></defs><title>Artboard 1</title><path class="cls-1" d="M65.9,88.17H91.18V90.7L72.13,117.52H91.18v5.29H64.31V119.7L83,93.27H65.9Z"/><path class="cls-1" d="M96.72,88.47a3.36,3.36,0,0,1,3.17,0,2.83,2.83,0,0,1,1.59,2.77A2.9,2.9,0,0,1,99.89,94a3.3,3.3,0,0,1-3.17,0,2.9,2.9,0,0,1-1.58-2.8A2.84,2.84,0,0,1,96.72,88.47Zm-1,9.85v24.49h5.09V98.32Z"/><path class="cls-1" d="M142.15,98.42v13.06a7.3,7.3,0,0,0,1.76,5.1,6.87,6.87,0,0,0,9.75-.2,7.59,7.59,0,0,0,1.9-5.25V98.42h5.1v24.44h-4.6l-.3-3.61a10.77,10.77,0,0,1-8.41,4,9.61,9.61,0,0,1-7.45-3.12q-2.85-3.12-2.85-8.56V98.42Z"/><path class="cls-1" d="M209.92,101.56a13.49,13.49,0,0,1,.05,18.16,12.25,12.25,0,0,1-9.18,3.59,12.1,12.1,0,0,1-9.11-3.59,13.64,13.64,0,0,1,0-18.19,13.25,13.25,0,0,1,18.21,0ZM195.37,105a8.29,8.29,0,0,0-2.05,5.69,8.14,8.14,0,0,0,2,5.64,6.91,6.91,0,0,0,5.44,2.28,7,7,0,0,0,5.47-2.28,8.7,8.7,0,0,0-.08-11.31,7.41,7.41,0,0,0-10.81,0Z"/><path class="cls-1" d="M259.43,118.36a17.74,17.74,0,0,1-13,5.14A20.91,20.91,0,0,1,238.3,122a15,15,0,0,1-5.74-4,17.59,17.59,0,0,1-3.29-5.64,20.22,20.22,0,0,1,0-13.33,18.77,18.77,0,0,1,3.32-5.79,15.1,15.1,0,0,1,5.76-4.14,20.36,20.36,0,0,1,8-1.53,17.24,17.24,0,0,1,12.67,5.25l-3.71,3.56a12.23,12.23,0,0,0-9-3.56q-6.18,0-9.5,3.81a13.09,13.09,0,0,0-3.26,9,13.3,13.3,0,0,0,3.26,8.93q3.22,3.69,9.5,3.69a13.24,13.24,0,0,0,5-1,12.51,12.51,0,0,0,4.26-2.77Z"/><path class="cls-1" d="M282.24,98.42h4.95v24.39h-4.85l-.25-4a7.61,7.61,0,0,1-3.53,3.42,11,11,0,0,1-4.88,1.19,12.24,12.24,0,0,1-9-3.37q-3.51-3.42-3.51-9.5t3.59-9.33a12.62,12.62,0,0,1,9-3.39,10.46,10.46,0,0,1,4.9,1.19,8,8,0,0,1,3.41,3.22Zm-13.71,6.31a7.79,7.79,0,0,0-2.27,5.86,7.9,7.9,0,0,0,2.27,5.89,7.78,7.78,0,0,0,5.65,2.23,8.19,8.19,0,0,0,3.88-.9,6.2,6.2,0,0,0,2.57-2.32,11.29,11.29,0,0,0,1.29-3.14,7.15,7.15,0,0,0,0-3.44,11.12,11.12,0,0,0-1.29-3.17,6.29,6.29,0,0,0-2.57-2.33,8.31,8.31,0,0,0-3.88-.89A7.81,7.81,0,0,0,268.53,104.73Z"/><path class="cls-1" d="M324.8,88.47a3.34,3.34,0,0,1,3.16,0,2.83,2.83,0,0,1,1.59,2.77A2.9,2.9,0,0,1,328,94a3.28,3.28,0,0,1-3.16,0,2.9,2.9,0,0,1-1.59-2.8A2.83,2.83,0,0,1,324.8,88.47Zm-1,9.85v24.49h5.09V98.32Z"/><path class="cls-1" d="M373.79,98.42h4.95v24.39h-4.85l-.25-4a7.63,7.63,0,0,1-3.54,3.42,10.89,10.89,0,0,1-4.87,1.19,12.21,12.21,0,0,1-9-3.37q-3.51-3.42-3.51-9.5t3.58-9.33a12.66,12.66,0,0,1,9-3.39,10.43,10.43,0,0,1,4.89,1.19,8,8,0,0,1,3.42,3.22Zm-13.71,6.31a7.76,7.76,0,0,0-2.28,5.86,7.87,7.87,0,0,0,2.28,5.89,7.78,7.78,0,0,0,5.64,2.23,8.24,8.24,0,0,0,3.89-.9,6.33,6.33,0,0,0,2.57-2.32,11.29,11.29,0,0,0,1.29-3.14,7.15,7.15,0,0,0,0-3.44,11.12,11.12,0,0,0-1.29-3.17,6.42,6.42,0,0,0-2.57-2.33,8.35,8.35,0,0,0-3.89-.89A7.8,7.8,0,0,0,360.08,104.73Z"/><path class="cls-1" d="M390.07,88.22v34.59H385V88.22Z"/><path class="cls-1" d="M315.82,101.53a12,12,0,0,0-8.89-3.61A10.92,10.92,0,0,0,302,99.09a8.86,8.86,0,0,0-3.69,3.29l-.29-4h-4.8v31.24l5.09-3.11v-7.3a7.76,7.76,0,0,0,3.69,3.09,12.47,12.47,0,0,0,4.92,1,11.73,11.73,0,0,0,9-3.57,12.78,12.78,0,0,0,3.36-9.15A12.59,12.59,0,0,0,315.82,101.53ZM312,116.23a7.51,7.51,0,0,1-5.54,2.18,7.33,7.33,0,0,1-5.49-2.23,7.57,7.57,0,0,1-2.18-5.54,7.75,7.75,0,0,1,2.1-5.54,7.28,7.28,0,0,1,5.57-2.23A7.53,7.53,0,0,1,312,105a7.66,7.66,0,0,1,2.13,5.62A7.57,7.57,0,0,1,312,116.23Z"/><path class="cls-2" d="M349.39,117.67a7,7,0,0,1-3.12.84q-3.51,0-3.51-4V102.87h7.18v-4.4h-7.13V91.65l-5.15,2.12v4.7H333v4.4h4.7V114.5q0,4.31,2.16,6.51a7.93,7.93,0,0,0,6.16,2.1,12,12,0,0,0,4.89-1.09Z"/><path class="cls-1" d="M129.43,101.21a12.31,12.31,0,0,0-8.9-3.34A11.58,11.58,0,0,0,115.6,99a7.64,7.64,0,0,0-3.63,3.19v-14h-.1l-5,4.27v30.32h4.8L112,119q2.67,4.36,8.46,4.36a12.29,12.29,0,0,0,8.95-3.42q3.52-3.4,3.52-9.3T129.43,101.21Zm-3.86,15.14a7.49,7.49,0,0,1-5.49,2.21,7.6,7.6,0,1,1,5.49-2.21Z"/><polygon class="cls-1" points="176.54 109.9 187.08 98.71 187.08 98.42 180.9 98.42 171.84 108.41 171.84 89.21 166.69 93.27 166.69 122.81 171.84 122.81 171.84 111.53 182.28 122.81 188.52 122.81 188.52 122.47 176.54 109.9"/><text class="cls-3" transform="translate(292.75 145.32)">BRIDGING THE <tspan class="cls-4" x="77.23" y="0">G</tspan><tspan x="85.95" y="0">AP</tspan></text><path class="cls-5" d="M106.11,79.52S174.73,18.77,261,35.64c0,0-59.62.38-101.25,43.88H106.11"/><path class="cls-6" d="M228.73,44.27s28.5-6.38,36.75-6.75c0,0,50.25,7.87,76.5,39l-4,2.25S310.48,45,228.73,44.27"/></svg>