<?xml version="1.0" encoding="utf-8"?>
<!-- Generator: Adobe Illustrator 23.0.0, SVG Export Plug-In . SVG Version: 6.00 Build 0)  -->
<svg version="1.1" id="Layer_1" xmlns="http://www.w3.org/2000/svg" xmlns:xlink="http://www.w3.org/1999/xlink" x="0px" y="0px"
	 viewBox="0 0 1461.6 792" style="enable-background:new 0 0 1461.6 792;" xml:space="preserve">
<style type="text/css">
	.st0{fill:#070707;}
	.st1{fill:#4FAE55;}
	.st2{fill:#4EAE54;}
	.st3{fill:#030303;}
	.st4{fill:#55AE5E;}
	.st5{fill:#090909;}
	.st6{fill:#53AD5D;}
	.st7{fill:#57AF60;}
	.st8{fill:#0C0C0C;}
	.st9{fill:#4FAE56;}
	.st10{fill:#111111;}
	.st11{fill:#59AE64;}
	.st12{fill:#151515;}
	.st13{fill:#63B16F;}
	.st14{fill:#333333;}
	.st15{fill:#212121;}
	.st16{fill:#272727;}
	.st17{fill:#E3E3E3;}
	.st18{fill:#97BEA3;}
	.st19{fill:#232323;}
</style>
<title>Artboard 1</title>
<path class="st0" d="M943.5,274.1c7.8-4.8,15.5-10,23.5-14.3c2.2-1.2,6.2-0.9,8.6,0.3c3.2,1.6,3.3,7.5,0.8,11.2
	c-4.5,6.8-9.2,13.3-13.8,20.1c-5.2,7.8-10.3,15.6-15.4,23.5l1.1,1.1c1.2-0.8,2.3-1.8,3.3-2.8c15.7-16.7,32.7-32.1,50.8-46.1
	c1.1-1,2-2.1,2.9-3.3c3-1.7,6.2-3,8.9-5.1c9.4-7.2,19.6-7.7,30.5-4.3c5.3,3.1,5.9,5.9,2.7,11.2c-1.1,1.8-2,3.8-2.9,5.6l-2.6,1.1
	l-5,2.2l-1.4,0.7h-1.2l-1.4-0.7l-1.9-0.4l-6.6,0.1l-1.5,0.2l-2.3,0.8l-2.7,1.2l-4.5,2.8c-0.2-0.1-0.4-0.1-0.5,0.1c0,0,0,0.1,0,0.1
	l-4.9,3.4c-3.2,1.9-6.7,3.5-9.7,5.7c-34.1,24.5-60.5,56-82.2,91.7c-2.2,3.5-3.9,7.3-6.3,10.6c-1.5,1.9-3.5,3.4-5.6,4.4
	c-3.4,1.8-7.1,3.2-10.7,4.7c6.7,14.8,5.8,25.9-15.4,44.1l-1.5-2.9c-3.3,4-6,4.2-12.6,1c0.5-0.6,1.1-1.2,1.6-1.8l2.3-2.9
	c5.8-7.3,11.2-14.8,13.4-24.1c2.5-10.6-0.8-16.5-11.7-18c-10-1.4-20.2-1.5-30.3-1.8c-12.5-0.3-24.9-0.4-36.8,4.3
	c-2.5,1-6,1.2-8.3,0.2c-10.8-4.6-21.7-2.4-32.5-1.3c-12.4,1.3-24.6,3.8-36.9,5.4c-3.7,0.5-4.8,2.3-5.8,5.5
	c-13.3,39.9-27.8,79.4-44.8,117.9c-17.3,39.2-36.7,77.2-60.2,113c-19.8,30.1-42.2,58-69.8,81.5c-25.7,21.8-54.2,38.4-87.6,44.9
	c-44.6,8.7-86.3,2-122.6-27.3c-16.6-13.3-32.9-27-44.6-45.2c-14.9-23.1-20.9-48.1-14.1-75c3.9-15.4,12.2-29,22-41.5
	c24.8-31.6,57.3-53.7,91.6-73.3c35.4-20.3,72.6-36.9,110.7-51.3c4-1.5,6-3.2,6.9-8.1c6.2-31.8,14.8-62.9,27.4-92.7
	c4.6-11,9.8-21.8,14.8-32.6c0.7-1.5,1.3-3.1,2-4.7l-1.1-0.8l-8.9,8.6c-27.5,26.7-56.1,52-88.7,72.4c-12,7.5-22.8,1.9-23.8-12.2
	c-0.8-11.8,2.4-23,8.3-32.9c26-43.8,60.7-78.8,106.1-102.6c11.9-6.3,24.5-8.1,37.6-3.7c7.4,2.5,14.4,3.3,20.7-3
	c2.5-2.5,6.1-2.1,8.5,0.5c2.8,3.1,3.9,6.8,1.3,10.9c-7.4,11.4-14.8,22.9-22.1,34.4c-30.1,47.7-52.5,99.9-66.1,154.6
	c-0.2,0.9-0.3,1.9-0.6,3.5c10.6-3.6,20.7-7,30.8-10.5c40.2-13.8,81.2-25,122.5-34.8c2.4-0.6,4.5-2.5,6.6-4c3.1-2.1,6.1-4.9,8.4,0.5
	h1.2c9.6,0,13.2-5.5,15-14.4c4.4-21.4,9.7-42.6,14.6-64c0.3-1.9,0.5-3.8,0.6-5.8c-5.6,5.3-10,10.2-15.3,14.1
	c-12.5,9.3-25.7,17.6-38.1,27.1c-15.4,11.7-31,23-48.7,30.9c-8.4,3.7-15.5,1-17.6-7.4c-0.7-2.7,0.2-6.2,1.5-8.9
	c9.8-20.3,19.8-40.5,30.1-60.5c3-5.8,5.5-11.3,4.5-17.9c-0.8-4.8,1.6-8.1,5.7-10.1c8.1-4.1,16.2-8.3,24.5-12
	c10.7-4.7,15.7-1.6,17.1,9.1c-24.2,22.7-40,50.2-54.3,78.6l1.5,2c2.7-0.5,5.7-0.6,8.2-1.7c20.1-9.5,38.2-22.1,55.8-35.4
	c6.8-5.1,13.6-10.1,20-15.6c4.3-3.7,8.2-7.7,11.8-12c4.8-5.7,11.7-8.6,18.1-6.3c5.3,1.9,8.2,6.2,8.7,11.7c0.2,2.3-0.8,4.8-1.7,7
	c-1.7,4.1-4.3,7.9-5.6,12c-7.5,23-14.8,46-22.1,69c-0.5,1.6-1,3.1-1.7,5.4l42.7-7.1c-2.5-5.2-5.5-9.9-7.1-15
	c-3.2-9.8-1-19.8,1.2-29.5c6.3-27.4,20.1-51,37.4-72.8c16.1-20.3,34.2-38.5,57.2-51.2c4-2.2,8.2-4.6,12.7-5.5
	c12.9-2.7,24.5,7,28.2,21.5c4,16.1-6,30.5-18.8,39c-4.6,3.1-9.7,5.4-14.1,7.7c10.3,0,21.2,0.1,32,0c4.5-0.1,8.9-1,13.4-1.2
	c11.6-0.3,20.9-5.8,29.6-12.6c0.4-0.3,0.8-0.7,1.2-1c2.7-2.1,5.6-4.7,8.6-1.1c2.7,3.2,1.1,6.5-1.3,9.4c-1.2,1.4-2.5,2.6-3.8,3.9
	l-1.6,0.6l0.2,0.6L943.5,274.1z M503.9,465.6c-0.9,0.2-1.7,0.5-2.6,0.8c-35.6,15-70.5,31.5-103.6,51.6c-30.4,18.4-59.1,39-81.7,66.9
	c-11.1,13.7-20.1,28.7-23.8,46c-3.8,17.8-0.6,35.1,7.4,51.3c9.3,18.7,21.7,35,38.9,47.1c17.7,12.4,37.8,19.1,59.1,22
	c19.4,2.7,38.8,2.9,58-1.9c30.9-7.8,56.4-24.8,79.3-46.3c28.5-26.7,51-58.1,71.1-91.3c36.1-59.5,64-122.8,87.8-188.1
	c2.1-5.8,4-11.6,6.3-18.3c-5.6,1.4-10.2,2.2-14.6,3.6c-1.8,0.6-3.4,1.8-4.5,3.4c-14.4,21.2-31.8,40.3-51.5,56.8
	c-14.4,12-29.1,23.6-46.2,31.7c-18.6,8.8-37.2,10.1-55.8,0.5c-10.6-5.5-19.9-12.2-22-25.2C505,472.7,504.5,469.2,503.9,465.6z
	 M884.3,388.8c0.5-0.5,0.9-1.1,1.4-1.6c14.5-25.8,29.3-51.6,43.5-77.6c5-9.2,9.6-19,5.2-30.3c-9.2,6.7-19.9,9.6-31.1,9.9
	c-29.6,0.9-59.3,1.4-88.9,2.1c-2.8,0.1-5.7-0.2-8.5,0.1c-1.3,0.1-3,0.7-3.7,1.6c-10.8,15.6-20.6,31.8-24.8,50.6
	c-2.2,9.8-4.2,19.8,1.5,29.1c1.7,2.8,5.2,6.6,7.8,6.5c11.7-0.2,23.7,0.5,34.9-4.3c9.3-4,18.5-8.2,27.6-12.6c5.7-2.7,9-2.8,11,0.8
	c2.5,4.6-1.5,6.7-4.3,9.1c-1.9,1.6-3.8,3.1-6.4,5.2C862.2,379.1,874.5,379.5,884.3,388.8z M663.6,415.6l-0.7-1.1
	c-0.8,0.1-1.6,0.2-2.3,0.4c-44.9,11.3-89.3,24.7-132.6,41.1c-11,4.1-11,4.2-10,16.1c0.8,10.5,7,18.2,17.4,19.2
	c8.6,0.9,18,1.5,26.1-0.8c28.5-7.8,54.7-19.9,74.3-43.3C644.7,436.5,654.3,426.1,663.6,415.6z M554.6,259.2
	c-12-0.2-20.6,4.7-28.7,10.7c-28,20.6-46.8,48.5-62.1,79.1c-2,4-3,8.7-3.8,13.2c-0.4,2,0.5,5.5,1.8,6.1c1.8,0.8,5,0,6.6-1.3
	c12.6-9.8,26-18.7,37.1-30c20.2-20.7,38.9-42.7,58.1-64.3c5.4-6.1,3.9-10.3-4-12.8C557.9,259.6,556.3,259.3,554.6,259.2L554.6,259.2
	z M811,275.6l0.5,0.9c1.8,0,3.6-0.1,5.5-0.3c16.5-2.8,32-8.5,45.7-18.1c7.8-5.5,14.7-12.1,17.2-21.7c0.7-2.6,0.9-6.9-0.6-8
	c-1.7-1.4-5.9-1.1-8.2,0.1c-6.3,3.3-12.6,6.8-18,11.2c-12.3,10.1-24.1,20.8-36.1,31.2C815.2,272.5,813.1,274,811,275.6L811,275.6z
	 M721.5,309.4c-0.1,0.1-0.3,0.2-0.3,0.3c0.1,0.2,0.2,0.4,0.3,0.6c0.1-0.1,0.3-0.2,0.3-0.3C721.7,309.9,721.6,309.6,721.5,309.4
	L721.5,309.4z"/>
<path class="st0" d="M376.3,269.7c5.1-3,10.5-5.7,15.1-9.3c3-2.3,6.1-3.1,8.4-1c2,1.8,2.9,5.3,3.1,8.1c0.2,1.8-1.5,3.9-2.6,5.7
	c-8.5,12.9-17.1,25.7-25.6,38.5c-1,1.3-1.4,3-1.2,4.6c0.8-0.6,1.7-1.3,2.4-2c17.1-18.2,35.4-35.1,55.7-49.8c5.1-3.7,10.5-7,16.1-9.9
	c8.4-4.4,16.8-1.6,24.9,1.5c1.2,0.5,2.3,3.8,1.9,5.4c-2.2,9-9.6,13-18.7,12.1c-4.4-0.4-8.9,0.5-12.8,2.6
	c-25,14.1-46.4,32.7-65.3,54.3c-16.3,18.7-30.6,39-42.7,60.6c-1.1,1.9-3.6,3.1-5.8,4.3c-4.2,2.3-8.6,4.1-12.9,6.3
	c-2.9,1.5-6,4.3-8.9,1.3s-2-6.8,0-10.1c8.4-14.1,17.1-28.1,25-42.5c9.1-16.5,17.6-33.4,26.1-50.2c2.9-5.7,4.2-11.8,1.4-17.7
	c-9,4-17.9,8.4-27.2,11.9c-25.6,9.8-52.3,11.9-79.4,11c-12-0.4-23.8-1.8-34.8-7.1c-8.2-3.9-8.8-9.6-1.5-14.8
	c2.8-1.8,5.7-3.4,8.6-4.9c6.1,9.1,15.5,11.4,24.8,12.6c26.7,3.5,52.7,0.5,77.5-10.1c15.9-6.8,29.3-16.5,34.9-34
	c4-12.7,4.1-25.6,1.7-38.5c-5.7-31.3-23.4-55.7-46-76.8c-31.4-29.5-67.7-53.4-107.3-70.6c-35.3-15.3-72-24-110.6-22.6
	c-12,0.4-23.8,2.6-34.6,8.2c-16.3,8.5-24.3,22.8-25.9,40.6c-2.2,25.2,0.6,49.8,11.8,72.9c2,4.2,4.6,8.1,6.1,12.5
	c0.7,2.2-0.5,5-0.8,7.6c-2.7-0.8-6-0.8-7.8-2.5c-8.6-7.9-14.2-17.8-18-28.8c-6.6-19.2-9.9-38.9-8.8-59.3c1.2-23.6,14.3-39.3,33.5-51
	c19.6-12,41-15.9,63.9-14.8c46.4,2.2,89.7,15.3,130.7,36.1c31.9,16.2,61.2,37,87.1,61.7c17.1,16.3,32.7,33.6,42.6,55.4
	c10.2,22.5,13.9,45.8,6.2,69.7c-2.5,7.9-7.8,14.8-11.9,22.2l-1.1,1.3l-0.5,1l1.3-0.1L376.3,269.7z M372.7,317.2l0.3-0.3
	c-0.2-0.1-0.4-0.2-0.6-0.3c-0.1,0-0.2,0.2-0.3,0.3L372.7,317.2z"/>
<path class="st1" d="M1249.9,536.2l2.4-2.7l2.5-2.6c5.1-6.5,10-13,15.3-19.4c3.7-4.5,8-8.4,11.6-13c2.4-3.1,3.4-7.4,5.8-10.5
	c5.5-7.1,11.6-13.9,17.4-20.8c1.2-1.6,2.3-3.4,3.3-5.1c-11.5,5-17.3,14.4-25.1,21.5c-2.9,2.7-4.9,6.1-9.8,6.5
	c-2.8,0.3-5.4,3.5-8,5.4l-5.2-0.1c5.4-6,10.9-11.9,16.2-18c9.3-10.6,18.8-21,27.4-32.1c7-9.1,12.3-19.4,19.1-28.6
	c12.7-17.2,26.1-33.9,38.7-51.1c4.9-6.8,8.2-14.7,12.4-21.9c1.3-2.2,3.8-3.6,5.1-5.8c2.3-3.8,4.2-7.8,5.6-12
	c-14.2,12.4-21.4,30.1-33,43.9l-6.6-4.5l0.7-2.3l-7.1,4.4l-1.2-0.9c2.3-3.2,4.3-6.7,7-9.6c3.5-3.9,7.6-7.3,11.3-11.1
	c2.7-2.8,4.9-2.5,7.4,1c11.8-15.6,21-32.2,25.1-51.4c0.9-4.3,2.5-8.5,2.9-12.8c0.9-10.5,1.5-20.9,1.9-31.4c0.3-7.4,0-14.8,0-21.2
	c8-6.4,3.5-14.3,5.6-21.6c1.1,3.6,3,7.1,3.1,10.7c0.2,8.6-0.4,17.3-1,25.9c-0.2,2.3-2.8,4.6-2.4,6.5c0.8,3.5,3,6.8,5.1,11.1
	c5.1-11.2,9.6-21.3,14.2-31.3l2,0.3c0.5,1.6,0.9,3.2,1.2,4.8c0.8,7.9,1.1,16,2.3,23.8c0.7,4.3,2.7,8.4,4.6,13.9l4.5-19.3l1.4-0.2
	c0.9,1.4,1.7,2.8,2.4,4.2c4.2,10.6,3.5,21.6,1.5,32.5c-3.3,17.6-6.9,35.1-13.4,52c-4.9,12.5-12.8,22.9-20.3,33.5
	c-12.6,17.7-24.9,35.6-38.8,52.3c-16.4,19.7-34.6,38-51.5,57.3c-7,8-15.8,13.5-23.4,20.4c-11,10-21.3,20.7-32.2,30.9
	c-1.7,1.5-4.5,1.8-6.8,2.6L1249.9,536.2z"/>
<path class="st2" d="M1044.7,254.4c-10.8-3.4-21-2.9-30.5,4.3c-2.7,2-5.9,3.4-8.9,5.1c-0.7-2.3-2.1-4.6-2-6.9
	c1-26.1,9.7-49.3,26.6-69.2c5.3-6.2,11.6-11.7,17.8-17.1c1.8-1.6,4.8-2,7.2-3c9.4-3.7,18.7-7.7,28.2-11.2c24-8.8,48.8-11.1,73.5-8.1
	c1.1,1,2,2.6,3.3,3c10.5,3.3,21.3,6,28,15.8c1.8,2.6,2.5,5.7,3.1,9.5c-8.3-7.6-17.8-8.1-27.7-7l-0.5,1.4c3.9,1.5,7.9,2.7,11.7,4.4
	c11.6,5.4,49.9,32.4,53.9,44.8c0.5,1.6,1.2,3.7,0.5,4.8c-0.8,1.3-4.1,2.8-4.4,2.4c-2.4-2.6-34.3-24.2-36.2-27.2
	c-1.4-2.1-2.2-4.7-3.8-6.6c-1.9-2.4-4.3-3.8-4.6-7.6c-0.3-4.1-5.3-5.4-8.6-2.9c-0.6,0.4-1.5,1.2-2,1c-5.4-2.3-9.5,1.5-14.2,2.6
	c-7.7,1.8-15.7,2.8-23.5,4.4c-13,2.7-25.9,5.5-38.9,8.3c-0.8,0.1-1.6,0.5-2.2,1.1c-6.8,10.4-17.6,18.1-20.1,31.4
	c-0.7,3.6-2.7,7.2-8.2,5.9c-1.3-0.3-3.2,2.1-5,3.4c-1.7-2.8-1.3-4.9,2-5.9c3.6-1,4.3-3.6,4.6-6.8c0.1-1.8,0.5-3.6,1.2-5.2
	c1.8-3.4,2-6.6-0.9-10.3C1051.3,223.9,1047,238.7,1044.7,254.4z"/>
<path class="st0" d="M256.5,134.9c1.9-0.4,3.8-0.4,4.9-1.2c3.8-2.8,4.9-0.8,5.6,2.6c1.4,7.2,0.8,14.6-1.8,21.4
	c-14,40.8-31.7,79.9-51,118.4c-13.2,26.4-26,53-42.6,77.6C158,373.9,143.1,393,122.7,407c-12.9,8.9-27.1,13-42.5,9.2
	c-13.5-3.3-22-13.1-27.7-25.3c-1.4-2.9-1.3-6.4,2-8.4s6-0.5,8.6,1.6c5.2,4.4,10.2,9,15.4,13.2c7.9,6.3,29.8,2,38.9-6.6
	c14.6-13.7,26.3-29.5,36.7-46.4c35.9-57.8,67.1-118.1,92.5-181.3c1.9-4.6,3.6-9.2,5.2-13.9S254.9,139.7,256.5,134.9z"/>
<path class="st2" d="M1031.1,274.2l1.9,0.4l1.4,0.7h1.2l1.4-0.7l5-2.2c1,1.1,2.1,2.1,3.1,3.2c1.8,2.1,3.6,4.4,5.4,6.6v-0.1l1.6,2.3
	l0.3,0.1v0.3l1.9,2.6l0,0l3.1,4l0,0c0.1,5.4,2.4,8.8,8.2,8.9l0,0c-0.5,6.1-0.5,6.1,2.2,7.5c0.3-1.4,0.5-2.9,0.8-4.4l2.7,2.4l1.6,1.6
	l2.4,1.2l2.3,2.7l0,0c-0.1,3.8,2.6,3.2,4.9,3.1v0v4.3l5-1.2l0,0l2.4,1.9l1.6,0.3c3.3,5.8,7.5,10.2,15,8.8l0,0l5.3,4.6h0.1
	c0,0.3,0,0.5,0,0.8l0.6-0.4l2,1.7c0.2,0.2,0.5,0.3,0.8,0.4l10.3,5.8l-2.4,2.1c1.1,0.1,2.1-0.2,2.6,0.2c5.5,4.9,12.3,0.7,18.1,2.7
	c0.4,0.1,1.2-0.9,1.8-1.3l1.9,1.4c2.3,2,4.8,4,3.1,7.7c-0.1,0.3,0.6,1,1,1.5v-0.1l2,1.1l2,0.9l4.2,2l6.8,2.9l1.9,2.2l7,4.2l2.6,1.6
	l2.6,2.1l-4.3,1.2c-0.3,0-0.5-0.1-0.7-0.3l-2.1-0.8l-1.9-0.5l-0.8-0.6l-2-0.2l-3.1-2l-3-1.8l-1-0.2l-2-0.9l-4-1.7l-9.1-3.1l0,0
	c-3.9-2.4-7.7-4.9-11.7-7c-0.7-0.4-2.1,0.5-3.2,0.8l-6-2.3l-2.4-1.5l-1.6-0.5c-0.1-3.1-1.7-3.3-4-1.9l-2-0.9l-4.1-1.7h-1.6l-4.3,0.8
	l-3-1.3l-6-6.7l2.7-5.3l-0.8-0.8l-6.8,6.1h-2l-1-0.2c0-4.8-3.5-3.6-6.2-3.7h-0.4l-0.4-0.2c-0.1-1.5-0.2-2.9-0.3-4.6l-6.7,0.6l-3-1.1
	c-0.8-3.5-3.1-3-5.9-2.3l2.8,4.9l-3.5,1.8c3.4,1.6,7.7,2.8,10.6,5.4s4.5,7,6.6,10.6c0,0.1-0.7,0.6-1,0.9l-4.9-1.8l-2.1-1.5l0,0
	c-0.3-5.4-4.4-4.8-8-5l-6.9-3.7c-1.5-3.8-3.8-6.5-8.4-6.1h0.2l-2.2-1.3l-1.7-0.8l-0.9-0.4l-2-1l-3.3-2.9l-1.8-1.7l-2.9-2.4l-2-1.1
	l-6.5-5l-2.4-3l-2.1-2.9l0,0c0.4-3.2-0.8-5-4.2-4.9h0c-0.5-1.1-1-2.2-1.5-3.3l-1.5-1.9c-0.3-0.7-0.7-1.3-1.1-2l-1.8-3.1
	c0.3-1.3,1.3-3.4,0.8-3.9c-3.5-3.5-3-6.2,1.2-8.3l-2-4.8c0.1-0.2,0.2-0.3,0.4-0.2c0,0,0.1,0,0.1,0c2.1,0.1,4.7,0.8,4.5-2.8l2.7-1.2
	l2.3-0.8l1.5-0.2L1031.1,274.2z M1046.7,323.9c0,0.3,0,0.7,0,1h7.7c0-0.3,0-0.7,0-1H1046.7z M1143.2,354.8l0.8,1.7l3-1.7l-0.7-1.4
	L1143.2,354.8z M1099.5,338v0.9h2.9V338H1099.5z M1050,331.6c0.8-0.8,1.4-1.2,1.5-1.7c0.1-0.3-0.6-0.8-0.9-1.3
	c-0.5,0.4-1.1,0.6-1.3,1.1S1049.6,330.7,1050,331.6z M1130.8,351c1,0.7,1.4,1.3,1.9,1.3c0.9-0.1,1.7-0.4,2.5-0.7
	c-1.1-0.6-1.4-1-1.8-1C1132.5,350.6,1131.6,350.8,1130.8,351z M1031.8,313.1c-0.7,0.7-1.4,1.2-1.4,1.5c0.2,0.6,0.6,1.1,1.1,1.4
	c0.2,0.1,1.1-0.6,1.2-0.9S1032.3,314,1031.8,313.1L1031.8,313.1z M1028.8,310.3c-0.6-0.3-1.1-0.8-1.3-0.7c-0.4,0.2-0.7,0.7-1,1.1
	c0.4,0.2,0.8,0.5,1.2,0.4S1028.3,310.7,1028.8,310.3L1028.8,310.3z M1078.6,316.2l-0.8-0.4c-0.1,0.3-0.4,0.6-0.3,0.8
	s0.5,0.3,0.8,0.4L1078.6,316.2z"/>
<path class="st3" d="M824.8,582.5c-0.7,6.2-9.3,17.4-14.8,17.6c-3.1,0.1-7-1.7-9.4-4c-10-9.5-17-21.3-22.3-33.8
	c-3.3-8-7.8-11.8-16.4-10c-0.9,0.1-1.8,0.1-2.6,0c-0.9,6.5-1.6,12.7-2.8,18.9c-1.7,9.3-7.9,14.5-16.5,17.2l-2-2
	c5.6-7.3,7-16.1,8.1-24.9c1.3-11,2.7-22,3.9-33c0.9-8.3,1.5-16.6,2.2-24.9c-11.7,0.6-31,7.6-32.4,19.6c-0.7,5.6,0.8,11.4,1.2,17.1
	v1.1l-8,7l-2.8-0.1c-4.1-13.3,2.2-30.1,13.5-38.8c16-12.3,34.6-15.3,54-13.9c6.1,0.4,12.1,2,17.5,4.8c13.5,7.3,13.8,22.3,5.8,33.1
	c-4.3,5.8-10.6,10.2-16.5,15.6c6.2,10.6,12.5,22.6,19.9,33.9c6,9.2,11.3,8.6,17.7-0.7L824.8,582.5z M759.8,545.3
	c10.2,1.8,19.9,3.6,27.7-5.6c6.9-8.2,9.8-20.6,2.6-29.3c-5.6-6.8-13.9-7.4-22-8.1c-3.3-0.3-4.2,1.2-4.3,4.4c-0.2,5-1.1,10-1.6,15
	C761.4,529.4,760.6,537.2,759.8,545.3z"/>
<path d="M912,532.6c7.8-4,15.9-5.4,24.4-3.2c1.2,0.2,2.3,0.3,3.5,0.2l1.1,2.8c-1.4,10-2.8,20-4.1,30c-0.8,6.8-1.3,13.7-2.1,20.5
	c-1.3,11.2-2.7,22.3-3.9,33.5c-0.8,7.3-1.4,14.7-2,22c-0.2,2.3,0,4.7,0,7v3.1l-9,7l-2.8-0.1c0.7-7.5,1.3-14.9,2.1-22.4
	c0.8-7.8,1.8-15.5,2.8-23.3c1.3-10.7,2.7-21.3,3.8-32c0.2-2.4-0.6-4.9-0.9-7.3l-1-3c0.8-1.9,1.5-3.8,2.1-5.8
	c1.2-6.1,1.5-12.5,3.4-18.4c1.6-5-0.5-6.4-4.4-6.9s-8.1-0.7-12.1-1L912,532.6z"/>
<path class="st4" d="M1283.9,442.4c-6.8,11.3-11.7,23.7-20.9,33.6c-3.4,3.7-4.8,9-7.7,13.3c-1.9,2.8-4.9,5-7.3,7.5
	c-1.1,1.1-1.7,2.7-2.8,3.8c-1.8,1.7-3.8,3.2-5.8,4.6c-0.3,0.2-1.9-0.5-1.9-0.9c0-1.1,0.2-2.2,0.7-3.2c2.2-4.3,4.1-8.7,6.8-12.6
	c5-7.2,1.7-13-2.9-18.9c2.5,7.9,0.2,14.5-3.1,21h-2c-1.5-6-5-12.4-3.8-17.8s1.2-9.6-1-14.4c-0.7-1.5,0.5-3.8,0.4-5.7
	c0.1-4-1.6-7.7-4.7-10.3c-4.3-3.9-7.6-9.1-10.4-14.2c-1.4-2.5-0.6-6.2-0.8-9.8c3.8,2.6,7.5,4.5,6.9,10c-0.4,4,1.7,5.7,5.8,5.1
	c1.3-0.1,2.7-0.1,4,0.1c2.7,5.5,4.8,10.5,7.4,15.1c2.3,4,5.3,7.6,7.6,11.6c1,1.8,1,4.1,1.4,6.2c0.5,2.5,0.8,5.1,1.3,7.7
	c6.1-0.2,9.5-1.7,9.2-7.8c-0.1-1.9,1.4-4,2.7-5.8c3.2-4.6,6.1-9.4,10-13.3c2.7-2.7,6.6-4.1,10-6.1
	C1283.3,441.7,1283.6,442.1,1283.9,442.4z"/>
<path class="st5" d="M1183.3,581.5c1.6,5.9-1.9,8.4-4.8,10.7c-5.2,4.1-10.2,9.2-18.2,6.4c-4.8-1.7-6.1-5.4-6.2-9.4
	c-0.1-6.6,0.3-13.2,1-19.7c0.8-8.1,1.9-16.2,2.9-24.3c0.3-2.1,0.4-4.2,0.7-6.6h-16.1c5.1-5.3,8.7-11.3,17.1-8.7
	c0.2-2.2,0.5-4,0.4-5.7c-0.2-7.7,4.6-10.4,11.6-11.3c-0.6,5.3-1.2,10.8-1.9,16.5h30.3c-3.8,4.4-6.3,10.3-13.9,9.2
	c-5.4-0.7-11-0.1-17.1-0.1c-0.7,5.3-1.5,10.7-2.2,16.1c-1.1,8.7-2.5,17.5-2.8,26.2c-0.1,3.3,1.7,7.4,3.9,10c2,2.3,8.3-0.5,10.9-3.9
	C1180.3,585.2,1181.6,583.7,1183.3,581.5z"/>
<path d="M1079.1,585.4c-6.4,10-23,18.8-33.1,10.9c-5.3-4.1-7.4-9.9-7.8-16.1c-0.9-14.2,5.4-26,13.6-37c5.1-6.8,10.9-12.7,19.7-15
	c4-1,8.5-2.1,10.8,1.4c2.1,3.4,2.8,7.5,2,11.4c-1.3,5.1-4.7,9.6-7.2,14.3l-3-1c0.4-1.2,0.6-2.5,1.1-3.7c1.8-4.5,1.9-8.9-2.2-11.9
	s-8.5-2.1-12.2,0.6c-7.6,5.5-9.9,14-11.7,22.6c-0.1,0.6,2.1,2.4,3.3,2.4c3.2-0.1,6.5-0.4,9.7-1c0.3,1,0.7,2,1,3l-11.3,4.9
	c-2.1,0.9-3.2,2-2.6,4.8c3.6,16.2,16.8,16.2,26.8,8.2L1079.1,585.4z"/>
<path class="st6" d="M1375.9,184.8h-12.8c0.7-1,1.3-2,2.5-3.8l-17.4-5.1l-0.9,1.5l3.7,2.1c-5.1,0-9.2,0.1-13.3-0.1
	c-1.5-0.1-2.9-0.9-4.4-1.4l3.3-3.8c-3.8-1.6-8.1-1.6-11.9,0.1c-4.6,1.9-9.6,5.1-13.9,4.5c-9.3-1.5-43.9,30-52.3,31
	c-0.2,0-0.3,0-0.5,0.1c-2.8,0.9-5.6,1.9-8.4,2.7c-0.5,0.1-1-0.2-1.3-0.5c-1.4-3.3-2.8-6.7-4.3-10.2c15.7-10.2,60.5-33.6,77.9-34
	c-0.2-0.7-0.4-1.4-0.6-2.1c-0.3-0.7-0.7-1.3-1.1-1.9c9-3,17.1-2.7,25,2.5c2.5,1.6,5.7,2.1,8.4,3.5c4.7,2.4,9.3,4.8,13.8,7.7
	C1370,179.3,1372.5,181.9,1375.9,184.8z"/>
<path class="st7" d="M1145.2,344.8c-0.6,0.5-1.4,1.5-1.8,1.3c-5.9-2-12.7,2.2-18.1-2.7c-0.4-0.4-1.5-0.1-2.6-0.2l2.4-2.1l5.5,2
	l0.7-1.3c-1.4-1-2.8-2.1-4.2-3.1c-9.7-6.5-19.5-12.8-29.1-19.5c-4-2.8-7.4-6.5-11.1-9.8c-0.9-0.8-1.6-1.9-2.6-2.3
	c-7.9-2.9-11.7-10.1-15.8-16.3c-3.1-4.7-3.9-11.1-5.2-16.9c-1.2-5.3-1.6-10.7-2.5-17c6,2.6,5.7-2.3,7.5-4.6l2.7,1.9l-0.8,6
	c-0.2,1.6-0.3,3.3-0.4,4.9l0.4,5.1l-1,5c0.5,3,1.1,5.8,5.1,6.4c1.3,0.2,2.7,1.8,3.5,3.2c8,13.1,19.1,23.2,30.5,33.2
	c3.8,3.3,7.8,6.5,11.4,10.1C1127,335.5,1136,340.3,1145.2,344.8z"/>
<path d="M979,536.5c-1.4,12.8-2.8,25.5-4,38.2c-0.3,3.6-0.3,7.3,0,10.9c0.3,3.8,3.2,4.4,6.1,3.8c2.4-0.5,4.6-2,6.9-3l1.8,2.6
	c-4.9,3.3-9.6,7-14.8,9.8c-3.6,1.9-8,0.5-9.9-3.1c-0.6-1.1-0.8-2.3-0.8-3.5c0.1-6,0.4-12.1,1.1-18.1c0.7-7.1,1.8-14.2,2.8-21.2
	c0.3-2.7,0.7-5.5,1-8.2c0.7-6.3-1.3-8-7.1-6.1c-0.3-1-0.7-2-1-3.1c3.3-2.5,6.5-5.3,10.1-7.2c1.5-0.8,3.9,0.3,5.9,0.5l0.8,0.8
	c0.4,2,0.8,4,1.2,6L979,536.5z"/>
<path class="st8" d="M852,565.4c-4,2-7.8,4.1-11.9,5.9c-2.4,1-3.7,1.8-3,4.9c1.5,6,3.9,11.4,10.3,12.9s12.2-0.8,16.9-5.5
	c0.8-0.8,1.7-1.5,2.6-2.2l2.9,0.9c-4.6,4.5-8.6,9.8-13.9,13.1c-7.3,4.6-14.6,6.1-22.2,0.9c-5.1-3.5-7.2-9.1-7.6-14.7
	c-1.1-15.2,4.8-28.1,14.8-39.3l3,1c-2.2,5.6-4.3,11.3-6.5,16.9c-1.3,3.2,0.1,4.5,3.1,4.2c3.5-0.4,7-1.1,10.5-1.8L852,565.4z"/>
<path d="M1023,530.4c-1.9,12-3.8,24-5.7,36c-0.9,5.8-1.9,11.6-2.4,17.4s0.3,6.4,6,4.5c0.3,1,0.7,2,1,3.1c-2.5,2.3-4.8,5.1-7.7,6.5
	c-2.1,1.1-6.2,1.4-7.4,0.2c-1.8-1.8-2.7-5.5-2.5-8.3c0.4-5.6,1.8-11.1,2.6-16.6c0.1-0.9-0.6-1.9-1-2.8l-3.1-1
	c2.5-6.9,5.2-13.7,7.4-20.7c1-3.4,1.5-7,1.7-10.5c0.6-6.9,0.9-7.3,9.9-9.5C1022.3,529.2,1022.7,529.8,1023,530.4z"/>
<path d="M917.1,580.4c-6,9.1-14,15.9-24.6,18.7c-5.5,1.5-10.6-2.2-11.3-12c-1.1-15.3,3.3-29.2,13.6-40.8c2.2-2.5,4.8-4.6,7.2-6.9
	c0.3,1,0.7,2,1,3c-6.6,11.4-10.9,23.5-10,36.9c0.2,3,1.2,7.3,3.3,8.5s6.1-0.5,8.8-1.8c3.3-1.6,6-4.3,9-6.5L917.1,580.4z"/>
<path d="M1121,590.4c4.6-6.1,1.7-12.2-4.8-20.4c-4-5-8.6-9.5-12.4-14.6c-5.2-7-2.6-17.9,5.2-22l2.1,2.1c-2.9,5.9,0.5,10.3,3.8,14.4
	c4.4,5.5,9.3,10.6,13.8,16c8.9,10.6,2.4,22.8-6.7,27.7C1121.7,592.4,1121.3,591.4,1121,590.4z"/>
<path class="st9" d="M1080.5,351.6c0.4-0.3,1.1-0.8,1-0.9c-2.1-3.6-3.6-7.9-6.6-10.6s-7.2-3.8-10.6-5.4l3.5-1.8l-2.8-4.9
	c2.8-0.8,5.1-1.3,5.9,2.3c-0.3,0.7-0.9,1.9-0.7,2c4.7,3.8,9.2,7.8,14.2,11c7.1,4.5,14.8,8,22,12.4c2.3,1.4,3.3,5,5.6,6.2
	c11,5.8,22.2,11,33.2,16.5c5.5,2.8,10.9,5.8,16.4,8.7l-0.7,2c-12.2-5.1-24.4-10.1-36.4-15.5c-13.1-5.9-26-12-39-18.2
	C1083.7,354.4,1082.2,352.9,1080.5,351.6z"/>
<path class="st10" d="M843.9,543.4l-3-1c5.3-8.6,12.8-14.1,23-14.9c5.8-0.5,8.8,2.5,9,8.3c0.3,10.3-5.2,17.8-12.4,24.2
	c-2.5,2.2-5.6,3.6-8.5,5.3c-0.3-0.9-0.7-1.8-1-2.7c5.8-3,11-6.8,12.7-13.6c0.9-3.6,1-7.8-2.5-9.7c-2.9-1.4-6.2-1.9-9.4-1.2
	C849,538.9,846.6,541.6,843.9,543.4z"/>
<path class="st4" d="M1288.7,430.1c1.7-4.9,5.2-8.9,9.8-11.3c3.8-2.1,8.5-4,5.9-10.1c-0.2-1,0-2,0.6-2.8c4.6-5.8,9.3-11.5,14.1-17.1
	c0.6-0.6,2.1-0.4,3.5-0.6l-5.3,11c-0.9,1.9-1.1,3.3,1.7,3.1l1.2,1.1c-1.3,1.8-2.7,3.7-4,5.5c-3.2,4.2-6.4,8.3-9.5,12.5
	c-2.2,3-3.2,6.9-8.7,6c-2.3-0.4-5.1,2.5-7.7,4L1288.7,430.1z"/>
<path class="st11" d="M1175.7,373.6l4.3-1.2l26.8,25.8c-4.4,5.6,2.6,9.5,2.3,14.8c-8.5-3.9-10.6-12.7-15.3-19.3
	c-11.1,1.9-15.4-6.8-21.1-13.2l2.5-1.2l8.5,3c0.4-0.5,0.7-1.1,1.1-1.6L1175.7,373.6z"/>
<path class="st12" d="M874.5,452.5c-1.6,4.7-3,9.5-4.9,14.1c-1.6,3.9-14.1,9.1-17.8,7.5c-2.6-1.2-4.3-3.3-2.6-6.4
	c1.2-2.2,2.6-4.2,3.9-6.3h0.9h1c3.3,0.8,10.3-2.7,12-6.1L874.5,452.5z"/>
<path d="M738,586.4l2,2l14,1.2l0.1,2.8c-4.4,8-12,5.8-18.8,5.8c-4.7,0-9.5-0.7-14.2-1.1l-0.1-2.8c2.9-4.1,6.3-6.8,11.8-6
	C734.4,588.6,736.3,587.1,738,586.4z"/>
<path class="st13" d="M1260,495.4l5.2,0.1c-7.8,8.4-15.5,16.8-23.3,25.1c-2.5,2.4-5.1,4.6-7.8,6.7l-0.1-3L1260,495.4z"/>
<path d="M1118,596.2c-8.6,3.7-17.3,5.1-26,0.3v-3.1l6-5h1.1c5.3,4,11.2,6,18,5C1117.3,594.3,1117.7,595.3,1118,596.2z"/>
<path d="M1113.1,530.6c7.8-4.4,15.8-3.9,24-1.3v1.1l-6,6h-1.1c-5.1-2.3-10.3-4-16-3L1113.1,530.6z"/>
<path class="st14" d="M855,461.5h-1c0-0.5,0-0.9-0.1-1.4c0.4-0.9,1.2-1.9,1-2.7c-1.2-6.3,2.9-9.7,7-13.1c2.1,2.8,7,4,5,9.1l0,0
	C863.3,456.6,858.1,457.4,855,461.5z"/>
<path class="st15" d="M1003,569.4l3.1,1l-16.3,18.5l-1.8-2.5L1003,569.4z"/>
<path class="st15" d="M867,453.4c2-5-3-6.3-5-9.1l2.1-2.2c6.6,3.2,9.3,3,12.6-1l1.5,2.9l-4.2,5.4L867,453.4z"/>
<path class="st16" d="M929,648.5v-3.1l14.4-11.7l0.7,0.9c0.3,3.2-1.2,4.9-4,6.5C936.2,643.1,932.7,645.9,929,648.5z"/>
<path class="st17" d="M1175.7,373.6l9.1,7.1c-0.3,0.5-0.7,1.1-1.1,1.6l-8.5-3l-7.3-6.7l0.2-1.3l2,0.2l0.8,0.6l1.9,0.5l2.1,0.8
	C1175.2,373.5,1175.4,373.6,1175.7,373.6z"/>
<path class="st13" d="M1389.6,202.9l-6.6,11.8c-3.5-3.8-1.4-9,5.1-12.4L1389.6,202.9z"/>
<path class="st9" d="M1013,279.4l2,4.8c-4.2,2.1-4.6,4.8-1.2,8.3c0.5,0.5-0.5,2.5-0.8,3.9l-5-13.6L1013,279.4z"/>
<path class="st18" d="M1161,389l0.7-2c5.5,3,11.6,5,16.7,8.7l-1.1,1.9L1161,389z"/>
<path class="st13" d="M1320.1,403.5l-1.2-1.1l10.8-12.8l1.3,1.1C1329.9,397,1323.8,399.3,1320.1,403.5z"/>
<path class="st15" d="M1022,591.5c-0.3-1-0.7-2-1-3.1l8.4-11.5C1031.9,580,1029.1,585.6,1022,591.5z"/>
<path class="st16" d="M917.1,580.4l-3-1l10-12l1,3L917.1,580.4z"/>
<path class="st16" d="M1063,566.5c-0.3-1-0.7-2-1-3l12-9l3,1L1063,566.5z"/>
<path class="st9" d="M1106.1,328.4c-7.6,1.4-11.7-3-15-8.8L1106.1,328.4z"/>
<path class="st15" d="M961,535.4c0.3,1,0.7,2,1,3.1l-7.7,10.3C951.9,545.4,953.8,541.4,961,535.4z"/>
<path class="st16" d="M903,542.4c-0.3-1-0.7-2-1-3l10.1-6.7l1,2.7L903,542.4z"/>
<path class="st18" d="M1233.9,524.3l0.1,3l-8.6,10.6l-1.4-1C1225.9,531.8,1230.9,528.7,1233.9,524.3z"/>
<path class="st16" d="M1079.1,585.4l-3.1-1l7.9-10.3C1086.4,580,1082.4,582.6,1079.1,585.4z"/>
<path class="st13" d="M1070.9,254.4l-2.7-1.9c1.2-3.1,2.4-6.3,3.6-9.4l1.7,0.5C1074.8,247.6,1073.1,251,1070.9,254.4z"/>
<path class="st18" d="M1288.7,430.1l1.5,1.4c-2.1,3.6-4.2,7.2-6.3,10.9c-0.3-0.4-0.6-0.7-0.9-1.1c0.8-2.7,4.8-4.2,3-8
	C1285.7,432.8,1287.7,431.2,1288.7,430.1z"/>
<path class="st13" d="M1249.9,536.2l1.1,4.2l-7.4,6.4l-1.4-1.3L1249.9,536.2z"/>
<path class="st7" d="M1131,355.4c1.1-0.3,2.4-1.2,3.2-0.8c4,2.2,7.8,4.6,11.7,7L1131,355.4z"/>
<path class="st9" d="M1050.4,282.2c-1.8-2.2-3.6-4.4-5.4-6.6c-1-1.1-2-2.1-3.1-3.2l2.6-1.1c1.3,1.6,2.5,3.3,3.6,5
	C1049,278.2,1049.7,280.1,1050.4,282.2z"/>
<path class="st13" d="M1168,372.5l7.3,6.7l-2.5,1.2c-1.6-1.3-3-2.7-4.3-4.3C1167.9,375.3,1168.1,373.8,1168,372.5z"/>
<path class="st9" d="M1065.3,300.2c-5.8-0.1-8.2-3.4-8.2-8.9L1065.3,300.2z"/>
<path class="st7" d="M1151.1,355.4c-0.3-0.5-1.1-1.2-1-1.5c1.7-3.7-0.8-5.6-3.1-7.7c1,0.1,1.9,0.4,2.9,0.7
	C1154.4,349,1154.7,351.4,1151.1,355.4z"/>
<path class="st7" d="M1096,339.4l6,6.7l-11-5.7l0.1-0.2L1096,339.4z"/>
<path class="st9" d="M1065.9,343.6c3.6,0.1,7.7-0.5,8,5L1065.9,343.6z"/>
<path class="st9" d="M1074,331.3l6.7-0.6c0.1,1.7,0.2,3.2,0.3,4.6L1074,331.3z"/>
<path class="st9" d="M1050.7,333.8c4.6-0.4,6.8,2.3,8.4,6.1L1050.7,333.8z"/>
<path class="st14" d="M867,453.4l7-4l0.5,3.1l-7.5,2.9L867,453.4L867,453.4z"/>
<path class="st7" d="M1145.9,361.5l9.1,3.1L1145.9,361.5z"/>
<path class="st9" d="M1068.2,303.3c-0.3,1.5-0.5,2.9-0.8,4.4c-2.6-1.4-2.6-1.4-2.2-7.5L1068.2,303.3z"/>
<path class="st9" d="M1027.5,317.3l6.5,5L1027.5,317.3z"/>
<path class="st10" d="M869.9,582.3l-2.9-0.9l4.3-7.1C874.8,578.2,871.5,580.1,869.9,582.3z"/>
<path class="st19" d="M1118,596.2c-0.3-1-0.7-1.9-1-2.8l4-3c0.3,1,0.7,2,1,3.1L1118,596.2z"/>
<path class="st19" d="M1113.1,530.6l1,2.8l-3,2l-2.1-2.1L1113.1,530.6z"/>
<path class="st9" d="M1081.8,335.5c2.8,0.1,6.3-1.1,6.2,3.7L1081.8,335.5z"/>
<path class="st9" d="M1087.1,317.4l-5,1.2v-4.3L1087.1,317.4z"/>
<path class="st9" d="M1111.4,333l-5.3-4.6L1111.4,333z"/>
<path class="st9" d="M1018.8,306.6c3.4,0,4.6,1.7,4.2,4.9L1018.8,306.6z"/>
<path class="st13" d="M1069.6,265.3c0.2-1.6,0.3-3.3,0.4-4.9C1069.9,262,1069.8,263.7,1069.6,265.3z"/>
<path class="st9" d="M1082.1,314.3c-2.3,0-5.1,0.7-4.9-3.1L1082.1,314.3z"/>
<path class="st13" d="M1069,275.4l1-5L1069,275.4z"/>
<path class="st7" d="M1117.1,349.2c2.3-1.3,3.8-1.1,4,1.9L1117.1,349.2z"/>
<path class="st7" d="M1105,347.4l4.3-0.8L1105,347.4z"/>
<path class="st7" d="M1111,346.6l4.1,1.7L1111,346.6z"/>
<path class="st9" d="M1057.1,291.3l-3.1-4L1057.1,291.3z"/>
<path class="st7" d="M1167.9,364.4l-1.9-2.2l3.7,1.5L1167.9,364.4z"/>
<path class="st9" d="M1040.7,327.5l3.3,2.9L1040.7,327.5z"/>
<path class="st7" d="M1159.2,359.3l-4.2-2L1159.2,359.3z"/>
<path class="st19" d="M824.8,582.5l-2.8,0c0-0.8,0.1-1.6,0.2-3.5L824.8,582.5z"/>
<path class="st19" d="M754,592.5l-0.1-2.8h3.4L754,592.5z"/>
<path class="st16" d="M917.2,655.4l2.8,0.1l-2.8,3.3V655.4z"/>
<path class="st19" d="M721,594.4l0.1,2.8h-3.4L721,594.4z"/>
<path class="st19" d="M710.2,548.4l2.8,0.1l-2.8,3.3V548.4z"/>
<path class="st9" d="M1017.4,303.3c0.5,1.1,1,2.2,1.5,3.3C1018.4,305.5,1017.9,304.4,1017.4,303.3z"/>
<path class="st19" d="M1092,593.4v3.1l-1.9-0.8L1092,593.4z"/>
<path class="st15" d="M1023,530.4c-0.4-0.6-0.7-1.2-1.1-1.8l2.5-1.5L1023,530.4z"/>
<path class="st9" d="M1077.3,311.2l-2.3-2.7L1077.3,311.2z"/>
<path class="st15" d="M868,437.4l-2.3,2.9L868,437.4z"/>
<path class="st16" d="M941.1,532.4l-1.1-2.8L941.1,532.4z"/>
<path class="st9" d="M1036,323.4l2.9,2.4L1036,323.4z"/>
<path class="st9" d="M1022.9,311.5l2.1,2.9L1022.9,311.5z"/>
<path class="st13" d="M1254.8,531l-2.5,2.6L1254.8,531z"/>
<path class="st7" d="M1162,367.4l3,1.8L1162,367.4z"/>
<path class="st9" d="M1014.8,299.5c0.4,0.7,0.7,1.3,1.1,2L1014.8,299.5z"/>
<path class="st9" d="M1054.1,287.4l-1.9-2.6L1054.1,287.4z"/>
<path class="st9" d="M1051.9,284.4l-1.6-2.3C1050.9,282.9,1051.4,283.6,1051.9,284.4z"/>
<path class="st7" d="M1159,366.3l2,0.9L1159,366.3z"/>
<path class="st7" d="M1177.5,370.2l-2.6-1.6L1177.5,370.2z"/>
<path class="st7" d="M1153,356.4l-2-1.1L1153,356.4z"/>
<path class="st9" d="M1089.4,319.3l-2.4-1.9L1089.4,319.3z"/>
<path class="st9" d="M1073.9,348.5l2.1,1.5L1073.9,348.5z"/>
<path class="st7" d="M1122.7,351.6l2.3,1.5L1122.7,351.6z"/>
<path class="st7" d="M1089.1,339.4h2c0,0.3,0.1,0.6,0.2,0.9l-0.1,0.2L1089.1,339.4z"/>
<path class="st9" d="M1048.6,332.6l2.2,1.3L1048.6,332.6z"/>
<path class="st19" d="M1137,530.5v-1.1l1.7,0.7L1137,530.5z"/>
<path class="st9" d="M1072.6,307.3l-1.6-1.6L1072.6,307.3z"/>
<path class="st16" d="M943.4,633.6l1.4-0.9l-0.7,1.8L943.4,633.6z"/>
<path class="st19" d="M1130,536.4h1.1l-0.7,0.8L1130,536.4z"/>
<path class="st9" d="M1114.8,335.5c-0.3-0.1-0.5-0.3-0.8-0.4C1114.4,334.9,1114.7,335.1,1114.8,335.5z"/>
<path class="st15" d="M979,536.5v-1.1l0.8,0.7L979,536.5z"/>
<path class="st19" d="M721,541.5v-1.1l0.8,0.7L721,541.5z"/>
<path class="st9" d="M1112,333.4l-0.6,0.4c0-0.3,0-0.5,0-0.8c0.2-0.1,0.5,0,0.6,0.2C1112,333.2,1112,333.3,1112,333.4z"/>
<path class="st15" d="M977.8,529.4l-0.8-0.8L977.8,529.4z"/>
<path class="st19" d="M1099.1,588.4h-1.1l0.7-0.8L1099.1,588.4z"/>
<path class="st15" d="M853.9,460.1c0,0.5,0,0.9,0.1,1.4h-0.9L853.9,460.1z"/>
<path class="st9" d="M1046,331.4l0.9,0.4C1046.5,331.8,1046.2,331.7,1046,331.4z"/>
<path class="st9" d="M1018,276.5c0.2,3.6-2.3,2.9-4.5,2.8L1018,276.5z"/>
<path class="st9" d="M1031.1,274.2l-6.6,0.1L1031.1,274.2z"/>
<path class="st9" d="M1023,274.5l-2.3,0.8L1023,274.5z"/>
<path class="st9" d="M1037,274.6l-1.4,0.7L1037,274.6z"/>
<path class="st9" d="M1034.4,275.3l-1.4-0.7L1034.4,275.3z"/>
<path class="st9" d="M1091.2,340.2c-0.1-0.3-0.1-0.6-0.2-0.9l6.8-6.1l0.8,0.8l-2.7,5.3L1091.2,340.2z"/>
<path class="st9" d="M1046.7,323.9h7.6c0,0.3,0,0.7,0,1h-7.7C1046.7,324.5,1046.7,324.2,1046.7,323.9z"/>
<path class="st7" d="M1143.2,354.8l3.1-1.3l0.7,1.4l-3,1.7L1143.2,354.8z"/>
<ellipse class="st7" cx="1101" cy="338.4" rx="2" ry="0.6"/>
<path class="st9" d="M1050,331.6c-0.4-0.9-0.8-1.5-0.7-1.9s0.8-0.7,1.3-1.1c0.3,0.4,1,0.9,0.9,1.3
	C1051.4,330.4,1050.8,330.8,1050,331.6z"/>
<path class="st7" d="M1130.8,351c0.8-0.2,1.7-0.4,2.5-0.5c0.4,0,0.8,0.4,1.8,1c-0.8,0.4-1.6,0.6-2.5,0.7
	C1132.2,352.3,1131.8,351.7,1130.8,351z"/>
<path class="st9" d="M1031.8,313.1c0.5,0.9,1,1.5,0.9,1.9s-1,1-1.2,0.9c-0.5-0.3-0.9-0.8-1.1-1.4
	C1030.4,314.2,1031.1,313.8,1031.8,313.1z"/>
<path class="st9" d="M1028.8,310.3c-0.5,0.4-0.8,0.8-1.1,0.9s-0.8-0.3-1.2-0.4c0.3-0.4,0.6-0.9,1-1.1
	C1027.7,309.5,1028.2,310,1028.8,310.3z"/>
<path class="st9" d="M1078.6,316.1l-0.4,0.8c-0.3-0.1-0.7-0.2-0.8-0.4s0.2-0.5,0.3-0.8L1078.6,316.1z"/>
<path class="st7" d="M1175,373.3l-2.1-0.8L1175,373.3z"/>
<path class="st7" d="M1170.9,372l-0.8-0.6L1170.9,372z"/>
<path class="st15" d="M867,453.4v2c-1.7,3.3-8.7,6.8-12,6.1C858.1,457.4,863.3,456.6,867,453.4z"/>
</svg>
